<svg xmlns="http://www.w3.org/2000/svg" viewBox="0 0 128 128" fill="#000000" stroke="#000000" height="96" width="96" style="transform: rotateZ(45deg);"><g transform="matrix(4,0,0,4,0,0)"><circle cx="16.964" cy="17.246" r="3.429" fill="none" stroke-linecap="round" stroke-linejoin="round" stroke-width="1.5"></circle><path fill="none" stroke-linecap="round" stroke-linejoin="round" stroke-width="1.5" d="M16.393 11.246h1.142m-.571 0v2.571m3.839-1.218.808.808m-.404-.404-1.819 1.818m3.576 1.853v1.143m0-.571h-2.571m1.218 3.838-.808.809m.404-.405-1.819-1.818m-1.853 3.576h-1.142m.571 0v-2.572m-3.839 1.219-.808-.809m.404.404 1.819-1.818m-3.576-1.853v-1.143m0 .572h2.571m-1.218-3.839.808-.808m-.404.404 1.819 1.818M7.3 17.127l-2.893-2.889a1.363 1.363 0 0 1 0-1.927l8.186-8.186 4.816 4.815M2.48 17.127l2.408-2.408 1.926 1.926-2.407 2.408zm-1.444 3.371 2.408-2.408m7.705-15.41 5.815 5.816"></path><path fill="none" stroke-linecap="round" stroke-linejoin="round" stroke-width="1.5" d="m14.038 5.57 3.37-3.371 1.927 1.926-3.37 3.37zM15.964.754 20.78 5.57"></path></g></svg>